<svg xmlns="http://www.w3.org/2000/svg" width="67" height="32" viewBox="0 0 67 32" fill="none"><path d="M23.7743 3.7517C23.7743 1.7111 25.4789 0.0135498 27.4963 0.0135498C29.5537 0.0135498 31.1796 1.70756 31.1796 3.7517C31.1796 5.8312 29.5513 7.48985 27.4963 7.48985C26.5095 7.48549 25.5644 7.09007 24.8672 6.38981C24.1699 5.68954 23.7771 4.74124 23.7743 3.7517Z" fill="#47BEAB"></path><path d="M22.0647 16.2239L14.1116 24.0745C13.2945 24.8887 12.1893 25.3455 11.0373 25.3453C8.63201 25.3453 6.67578 23.3955 6.67578 20.9971C6.67578 18.5987 8.63201 16.6477 11.0373 16.6477C11.9232 16.6477 12.8008 17.0014 13.4233 17.289C13.492 17.3215 14.3314 17.6786 14.8928 17.9162V10.6916C13.6588 10.2298 12.3521 9.99387 11.035 9.99488C4.94879 9.99488 0 14.9296 0 20.9989C0 27.0682 4.94996 32 11.0362 32C12.5422 32.0012 14.0326 31.6933 15.4155 31.0953C16.7985 30.4972 18.0447 29.6216 19.0774 28.5223L23.6917 23.9613V14.6107L22.0647 16.2239Z" fill="white"></path><path d="M15.3999 0V10.8908L15.3993 18.1296L22.0645 11.5445V0H15.3999Z" fill="white"></path><path d="M27.0482 10.7817H24.2015V31.7264H30.8696V18.7236L27.0482 10.7817Z" fill="white"></path><path d="M45.1973 21.1426C45.1973 18.0464 46.3242 15.1894 48.3715 13.0958C48.9988 12.4547 49.704 11.8952 50.4706 11.4306L50.7827 10.7823H43.8977L39.184 20.6351L34.5326 10.7817H27.5541L37.6345 31.7258H40.7364L45.2502 22.3115C45.2134 21.9268 45.195 21.5372 45.195 21.1426" fill="white"></path><path d="M45.6995 21.1427C45.6995 27.1483 50.1581 31.961 56.5558 31.961C60.744 31.961 64.1939 30.267 66.1325 27.5326L61.9449 24.1069C60.9009 25.6482 58.9206 26.6503 57.253 26.6503C54.9264 26.6503 53.143 25.3412 52.3677 22.9929H66.7908C66.7908 22.9929 66.829 22.1848 66.829 21.5676C66.829 14.9843 63.067 10.2878 56.5547 10.2878C50.1575 10.2878 45.6984 15.0999 45.6984 21.1444L45.6995 21.1427ZM56.5547 15.4459C59.7718 15.4459 60.5065 17.6409 60.5065 19.1422H52.3689C52.872 17.1016 54.4233 15.4459 56.5564 15.4459" fill="white"></path></svg>